<svg xmlns="http://www.w3.org/2000/svg" width="960" height="540" viewBox="0 0 960 540">
<style>text { font-family: "Helvetica Neue", Helvetica, Arial, sans-serif; font-size: 12px; }</style>
<rect x="0" y="0" width="960" height="540" fill="#ffffff" />
<line x1="60" y1="60" x2="60" y2="480" stroke="#333" stroke-width="1"/>
<line x1="60" y1="480" x2="900" y2="480" stroke="#333" stroke-width="1"/>
<text x="60" y="40" font-size="16" font-weight="600">Team Portfolio NAV Paths</text>
<text x="480.0" y="520" text-anchor="middle">Date</text>
<text x="20" y="50" text-anchor="end">NAV (USD)</text>
<text x="50" y="480.0" text-anchor="end">9,000</text>
<text x="50" y="60.0" text-anchor="end">10,929</text>
<text x="60" y="500" text-anchor="middle">2025-09-30</text>
<text x="900" y="500" text-anchor="middle">2025-11-14</text>
<polyline fill="none" stroke="#1f77b4" stroke-width="1.8" points="60.00,262.27 85.45,278.01 110.91,281.67 136.36,287.52 161.82,288.18 187.27,288.18 212.73,295.25 238.18,307.24 263.64,290.10 289.09,311.76 314.55,311.76 340.00,330.97 365.45,326.51 390.91,324.86 416.36,326.92 441.82,326.92 467.27,358.49 492.73,352.75 518.18,369.96 543.64,382.55 569.09,382.55 594.55,362.65 620.00,340.94 645.45,336.38 670.91,294.30 696.36,294.30 721.82,333.34 747.27,367.67 772.73,391.73 798.18,382.18 823.64,382.18 849.09,356.06 874.55,351.52 900.00,404.21" />
<rect x="70" y="60" width="14" height="14" fill="#1f77b4"/>
<text x="90" y="70" alignment-baseline="middle">1</text>
<polyline fill="none" stroke="#ff7f0e" stroke-width="1.8" points="60.00,262.27 85.45,268.91 110.91,280.23 136.36,278.01 161.82,262.65 187.27,262.65 212.73,258.19 238.18,273.34 263.64,300.07 289.09,282.96 314.55,282.96 340.00,267.51 365.45,289.02 390.91,283.58 416.36,270.56 441.82,270.56 467.27,265.44 492.73,262.74 518.18,266.50 543.64,263.97 569.09,263.97 594.55,255.07 620.00,259.65 645.45,258.39 670.91,238.78 696.36,238.78 721.82,237.95 747.27,258.08 772.73,255.26 798.18,221.12 823.64,221.12 849.09,226.33 874.55,261.27 900.00,271.06" />
<rect x="70" y="78" width="14" height="14" fill="#ff7f0e"/>
<text x="90" y="88" alignment-baseline="middle">2</text>
<polyline fill="none" stroke="#2ca02c" stroke-width="1.8" points="60.00,262.27 85.45,264.83 110.91,259.90 136.36,265.17 161.82,271.01 187.27,271.01 212.73,254.62 238.18,266.43 263.64,308.96 289.09,282.98 314.55,282.98 340.00,246.02 365.45,255.12 390.91,286.63 416.36,262.87 441.82,262.87 467.27,256.49 492.73,240.69 518.18,222.15 543.64,217.18 569.09,217.18 594.55,206.30 620.00,193.68 645.45,197.95 670.91,205.94 696.36,205.94 721.82,197.05 747.27,195.37 772.73,257.80 798.18,226.71 823.64,226.71 849.09,217.96 874.55,240.15 900.00,222.81" />
<rect x="70" y="96" width="14" height="14" fill="#2ca02c"/>
<text x="90" y="106" alignment-baseline="middle">3</text>
<polyline fill="none" stroke="#d62728" stroke-width="1.8" points="60.00,262.27 85.45,243.04 110.91,230.41 136.36,228.31 161.82,205.45 187.27,205.45 212.73,186.38 238.18,187.21 263.64,268.27 289.09,235.32 314.55,235.32 340.00,224.03 365.45,228.50 390.91,229.49 416.36,195.55 441.82,195.55 467.27,215.81 492.73,190.59 518.18,165.41 543.64,131.73 569.09,131.73 594.55,109.64 620.00,130.95 645.45,111.62 670.91,94.88 696.36,94.88 721.82,81.83 747.27,132.18 772.73,130.20 798.18,60.00 823.64,60.00 849.09,72.52 874.55,136.66 900.00,147.97" />
<rect x="70" y="114" width="14" height="14" fill="#d62728"/>
<text x="90" y="124" alignment-baseline="middle">4</text>
<polyline fill="none" stroke="#9467bd" stroke-width="1.8" points="60.00,262.27 85.45,255.45 110.91,248.52 136.36,248.56 161.82,242.35 187.27,242.35 212.73,226.01 238.18,243.79 263.64,313.90 289.09,289.16 314.55,289.16 340.00,289.91 365.45,282.97 390.91,282.53 416.36,271.24 441.82,271.24 467.27,279.49 492.73,272.60 518.18,257.18 543.64,238.05 569.09,238.05 594.55,236.21 620.00,244.52 645.45,247.95 670.91,249.43 696.36,249.43 721.82,245.42 747.27,268.60 772.73,264.64 798.18,220.92 823.64,220.92 849.09,220.14 874.55,252.77 900.00,253.50" />
<rect x="70" y="132" width="14" height="14" fill="#9467bd"/>
<text x="90" y="142" alignment-baseline="middle">5</text>
<polyline fill="none" stroke="#8c564b" stroke-width="1.8" points="60.00,262.27 85.45,264.48 110.91,259.44 136.36,244.92 161.82,243.43 187.27,243.43 212.73,232.64 238.18,247.52 263.64,304.11 289.09,269.19 314.55,269.19 340.00,265.27 365.45,310.72 390.91,299.38 416.36,270.21 441.82,270.21 467.27,288.18 492.73,272.00 518.18,267.91 543.64,267.31 569.09,267.31 594.55,306.10 620.00,306.19 645.45,309.85 670.91,326.81 696.36,326.81 721.82,324.04 747.27,348.23 772.73,327.06 798.18,333.04 823.64,333.04 849.09,328.42 874.55,336.73 900.00,342.14" />
<rect x="70" y="150" width="14" height="14" fill="#8c564b"/>
<text x="90" y="160" alignment-baseline="middle">6</text>
<polyline fill="none" stroke="#e377c2" stroke-width="1.8" points="60.00,262.27 85.45,255.86 110.91,253.68 136.36,244.96 161.82,221.55 187.27,221.55 212.73,193.44 238.18,221.96 263.64,242.18 289.09,188.79 314.55,188.79 340.00,154.03 365.45,115.99 390.91,149.19 416.36,77.56 441.82,77.56 467.27,74.42 492.73,67.48 518.18,68.67 543.64,102.54 569.09,102.54 594.55,103.18 620.00,122.82 645.45,117.60 670.91,112.56 696.36,112.56 721.82,101.81 747.27,109.08 772.73,107.68 798.18,82.06 823.64,82.06 849.09,81.68 874.55,124.18 900.00,127.03" />
<rect x="70" y="168" width="14" height="14" fill="#e377c2"/>
<text x="90" y="178" alignment-baseline="middle">7</text>
</svg>