<svg xmlns="http://www.w3.org/2000/svg" width="960" height="540" viewBox="0 0 960 540">
<style>text { font-family: "Helvetica Neue", Helvetica, Arial, sans-serif; font-size: 12px; }</style>
<rect x="0" y="0" width="960" height="540" fill="#ffffff" />
<line x1="60" y1="60" x2="60" y2="480" stroke="#333" stroke-width="1"/>
<line x1="60" y1="480" x2="900" y2="480" stroke="#333" stroke-width="1"/>
<text x="60" y="40" font-size="16" font-weight="600">Team Portfolio NAV Paths</text>
<text x="480.0" y="520" text-anchor="middle">Date</text>
<text x="20" y="50" text-anchor="end">NAV (USD)</text>
<text x="50" y="480.0" text-anchor="end">9,000</text>
<text x="50" y="60.0" text-anchor="end">10,938</text>
<text x="60" y="500" text-anchor="middle">2025-09-30</text>
<text x="900" y="500" text-anchor="middle">2025-11-14</text>
<polyline fill="none" stroke="#1f77b4" stroke-width="1.8" points="60.00,263.31 85.45,278.97 110.91,282.62 136.36,288.44 161.82,289.09 187.27,289.09 212.73,296.13 238.18,308.06 263.64,291.01 289.09,312.56 314.55,312.56 340.00,331.68 365.45,327.25 390.91,325.60 416.36,327.65 441.82,327.65 467.27,359.07 492.73,353.36 518.18,370.48 543.64,383.02 569.09,383.02 594.55,363.21 620.00,341.60 645.45,337.06 670.91,295.19 696.36,295.19 721.82,334.04 747.27,368.20 772.73,392.15 798.18,382.65 823.64,382.65 849.09,356.65 874.55,352.14 900.00,404.57" />
<rect x="70" y="60" width="14" height="14" fill="#1f77b4"/>
<text x="90" y="70" alignment-baseline="middle">1</text>
<polyline fill="none" stroke="#ff7f0e" stroke-width="1.8" points="60.00,263.31 85.45,268.89 110.91,280.16 136.36,277.95 161.82,262.46 187.27,262.46 212.73,258.02 238.18,273.11 263.64,299.73 289.09,282.68 314.55,282.68 340.00,267.30 365.45,288.72 390.91,283.30 416.36,270.34 441.82,270.34 467.27,265.24 492.73,262.55 518.18,266.30 543.64,263.77 569.09,263.77 594.55,254.91 620.00,259.47 645.45,258.22 670.91,236.26 696.36,236.26 721.82,235.42 747.27,255.49 772.73,252.68 798.18,218.56 823.64,218.56 849.09,223.75 874.55,258.59 900.00,268.35" />
<rect x="70" y="78" width="14" height="14" fill="#ff7f0e"/>
<text x="90" y="88" alignment-baseline="middle">2</text>
<polyline fill="none" stroke="#2ca02c" stroke-width="1.8" points="60.00,263.31 85.45,265.85 110.91,260.95 136.36,266.19 161.82,272.00 187.27,272.00 212.73,255.69 238.18,267.45 263.64,309.77 289.09,283.92 314.55,283.92 340.00,246.39 365.45,255.44 390.91,286.82 416.36,263.16 441.82,263.16 467.27,256.81 492.73,241.08 518.18,222.62 543.64,217.67 569.09,217.67 594.55,206.84 620.00,194.28 645.45,198.53 670.91,201.09 696.36,201.09 721.82,192.21 747.27,190.54 772.73,252.84 798.18,221.78 823.64,221.78 849.09,213.05 874.55,235.20 900.00,217.89" />
<rect x="70" y="96" width="14" height="14" fill="#2ca02c"/>
<text x="90" y="106" alignment-baseline="middle">3</text>
<polyline fill="none" stroke="#d62728" stroke-width="1.8" points="60.00,263.31 85.45,242.71 110.91,230.13 136.36,228.05 161.82,205.27 187.27,205.27 212.73,186.29 238.18,187.11 263.64,267.84 289.09,235.02 314.55,235.02 340.00,223.78 365.45,228.23 390.91,229.21 416.36,195.41 441.82,195.41 467.27,215.59 492.73,190.48 518.18,165.40 543.64,131.86 569.09,131.86 594.55,109.86 620.00,131.08 645.45,111.83 670.91,94.74 696.36,94.74 721.82,81.74 747.27,131.90 772.73,129.93 798.18,60.00 823.64,60.00 849.09,72.47 874.55,136.35 900.00,147.62" />
<rect x="70" y="114" width="14" height="14" fill="#d62728"/>
<text x="90" y="124" alignment-baseline="middle">4</text>
<polyline fill="none" stroke="#9467bd" stroke-width="1.8" points="60.00,263.31 85.45,254.32 110.91,247.41 136.36,247.45 161.82,241.26 187.27,241.26 212.73,224.99 238.18,242.69 263.64,312.54 289.09,287.90 314.55,287.90 340.00,288.64 365.45,281.73 390.91,281.29 416.36,270.05 441.82,270.05 467.27,278.27 492.73,271.40 518.18,256.04 543.64,236.98 569.09,236.98 594.55,235.15 620.00,243.43 645.45,246.85 670.91,246.78 696.36,246.78 721.82,242.78 747.27,265.88 772.73,261.94 798.18,218.36 823.64,218.36 849.09,217.58 874.55,250.11 900.00,250.83" />
<rect x="70" y="132" width="14" height="14" fill="#9467bd"/>
<text x="90" y="142" alignment-baseline="middle">5</text>
<polyline fill="none" stroke="#8c564b" stroke-width="1.8" points="60.00,263.31 85.45,265.50 110.91,260.49 136.36,245.76 161.82,244.07 187.27,244.07 212.73,233.32 238.18,247.61 263.64,303.96 289.09,269.19 314.55,269.19 340.00,265.29 365.45,310.54 390.91,299.25 416.36,270.21 441.82,270.21 467.27,287.61 492.73,271.49 518.18,267.43 543.64,266.82 569.09,266.82 594.55,305.46 620.00,305.55 645.45,308.97 670.91,325.01 696.36,325.01 721.82,322.25 747.27,346.35 772.73,325.25 798.18,330.86 823.64,330.86 849.09,326.04 874.55,334.33 900.00,339.50" />
<rect x="70" y="150" width="14" height="14" fill="#8c564b"/>
<text x="90" y="160" alignment-baseline="middle">6</text>
<polyline fill="none" stroke="#e377c2" stroke-width="1.8" points="60.00,263.31 85.45,256.92 110.91,254.76 136.36,246.08 161.82,222.79 187.27,222.79 212.73,194.81 238.18,223.19 263.64,243.32 289.09,190.17 314.55,190.17 340.00,155.59 365.45,117.72 390.91,150.76 416.36,79.47 441.82,79.47 467.27,76.35 492.73,69.44 518.18,70.63 543.64,104.34 569.09,104.34 594.55,104.97 620.00,124.53 645.45,119.32 670.91,113.90 696.36,113.90 721.82,103.19 747.27,110.44 772.73,109.03 798.18,83.53 823.64,83.53 849.09,83.16 874.55,125.46 900.00,128.30" />
<rect x="70" y="168" width="14" height="14" fill="#e377c2"/>
<text x="90" y="178" alignment-baseline="middle">7</text>
</svg>