<svg xmlns="http://www.w3.org/2000/svg" width="960" height="540" viewBox="0 0 960 540">
<style>text { font-family: "Helvetica Neue", Helvetica, Arial, sans-serif; font-size: 12px; }</style>
<rect x="0" y="0" width="960" height="540" fill="#ffffff" />
<line x1="60" y1="60" x2="60" y2="480" stroke="#333" stroke-width="1"/>
<line x1="60" y1="480" x2="900" y2="480" stroke="#333" stroke-width="1"/>
<text x="60" y="40" font-size="16" font-weight="600">Team Portfolio NAV Paths</text>
<text x="480.0" y="520" text-anchor="middle">Date</text>
<text x="20" y="50" text-anchor="end">NAV (USD)</text>
<text x="50" y="480.0" text-anchor="end">9,000</text>
<text x="50" y="60.0" text-anchor="end">10,938</text>
<text x="60" y="500" text-anchor="middle">2025-09-30</text>
<text x="900" y="500" text-anchor="middle">2025-12-08</text>
<polyline fill="none" stroke="#1f77b4" stroke-width="1.8" points="60.00,263.31 77.14,278.97 94.29,282.62 111.43,288.44 128.57,289.09 145.71,289.09 162.86,296.13 180.00,308.06 197.14,291.01 214.29,312.56 231.43,312.56 248.57,331.68 265.71,327.25 282.86,325.60 300.00,327.65 317.14,327.65 334.29,359.07 351.43,353.36 368.57,370.48 385.71,383.02 402.86,383.02 420.00,363.21 437.14,341.60 454.29,337.06 471.43,295.19 488.57,295.19 505.71,334.04 522.86,368.20 540.00,392.15 557.14,382.65 574.29,382.65 591.43,356.65 608.57,352.14 625.71,404.57 642.86,371.88 660.00,371.88 677.14,355.86 694.29,346.52 711.43,387.62 728.57,380.32 745.71,380.32 762.86,354.57 780.00,361.15 797.14,353.89 814.29,358.24 831.43,358.24 848.57,364.58 865.71,364.55 882.86,369.74 900.00,324.21" />
<rect x="70" y="60" width="14" height="14" fill="#1f77b4"/>
<text x="90" y="70" alignment-baseline="middle">1</text>
<polyline fill="none" stroke="#ff7f0e" stroke-width="1.8" points="60.00,263.31 77.14,268.89 94.29,280.16 111.43,277.95 128.57,262.46 145.71,262.46 162.86,258.02 180.00,273.11 197.14,299.73 214.29,282.68 231.43,282.68 248.57,267.30 265.71,288.72 282.86,283.30 300.00,270.34 317.14,270.34 334.29,265.24 351.43,262.55 368.57,266.30 385.71,263.77 402.86,263.77 420.00,254.91 437.14,259.47 454.29,258.22 471.43,236.26 488.57,236.26 505.71,235.42 522.86,255.49 540.00,252.68 557.14,218.56 574.29,218.56 591.43,223.75 608.57,258.59 625.71,268.35 642.86,259.04 660.00,259.04 677.14,270.11 694.29,249.14 711.43,256.68 728.57,249.03 745.71,249.03 762.86,219.24 780.00,219.24 797.14,190.85 814.29,188.57 831.43,188.57 848.57,155.90 865.71,147.47 882.86,145.49 900.00,157.11" />
<rect x="70" y="78" width="14" height="14" fill="#ff7f0e"/>
<text x="90" y="88" alignment-baseline="middle">2</text>
<polyline fill="none" stroke="#2ca02c" stroke-width="1.8" points="60.00,263.31 77.14,265.85 94.29,260.95 111.43,266.19 128.57,272.00 145.71,272.00 162.86,255.69 180.00,267.45 197.14,309.77 214.29,283.92 231.43,283.92 248.57,246.39 265.71,255.44 282.86,286.82 300.00,263.16 317.14,263.16 334.29,256.81 351.43,241.08 368.57,222.62 385.71,217.67 402.86,217.67 420.00,206.84 437.14,194.28 454.29,198.53 471.43,201.09 488.57,201.09 505.71,192.21 522.86,190.54 540.00,252.84 557.14,221.78 574.29,221.78 591.43,213.05 608.57,235.20 625.71,217.84 642.86,189.27 660.00,189.27 677.14,175.00 694.29,210.35 711.43,211.69 728.57,157.10 745.71,157.10 762.86,111.39 780.00,111.39 797.14,79.06 814.29,157.11 831.43,157.11 848.57,147.89 865.71,121.65 882.86,120.07 900.00,97.02" />
<rect x="70" y="96" width="14" height="14" fill="#2ca02c"/>
<text x="90" y="106" alignment-baseline="middle">3</text>
<polyline fill="none" stroke="#d62728" stroke-width="1.8" points="60.00,263.31 77.14,242.71 94.29,230.13 111.43,228.05 128.57,205.27 145.71,205.27 162.86,186.29 180.00,187.11 197.14,267.84 214.29,235.02 231.43,235.02 248.57,223.78 265.71,228.23 282.86,229.21 300.00,195.41 317.14,195.41 334.29,215.59 351.43,190.48 368.57,165.40 385.71,131.86 402.86,131.86 420.00,109.86 437.14,131.08 454.29,111.83 471.43,94.74 488.57,94.74 505.71,81.74 522.86,131.90 540.00,129.93 557.14,60.00 574.29,60.00 591.43,72.47 608.57,136.35 625.71,147.62 642.86,172.24 660.00,172.24 677.14,173.10 694.29,239.86 711.43,232.96 728.57,171.42 745.71,171.42 762.86,142.09 780.00,140.15 797.14,128.09 814.29,148.37 831.43,148.37 848.57,119.85 865.71,124.31 882.86,111.52 900.00,106.04" />
<rect x="70" y="114" width="14" height="14" fill="#d62728"/>
<text x="90" y="124" alignment-baseline="middle">4</text>
<polyline fill="none" stroke="#9467bd" stroke-width="1.8" points="60.00,263.31 77.14,254.32 94.29,247.41 111.43,247.45 128.57,241.26 145.71,241.26 162.86,224.99 180.00,242.69 197.14,312.54 214.29,287.90 231.43,287.90 248.57,288.64 265.71,281.73 282.86,281.29 300.00,270.05 317.14,270.05 334.29,278.27 351.43,271.40 368.57,256.04 385.71,236.98 402.86,236.98 420.00,235.15 437.14,243.43 454.29,246.85 471.43,246.78 488.57,246.78 505.71,242.78 522.86,265.88 540.00,261.94 557.14,218.36 574.29,218.36 591.43,217.58 608.57,250.11 625.71,250.83 642.86,262.32 660.00,262.32 677.14,262.26 694.29,295.82 711.43,274.55 728.57,268.97 745.71,268.97 762.86,247.77 780.00,247.77 797.14,231.33 814.29,245.52 831.43,245.52 848.57,239.62 865.71,250.97 882.86,260.14 900.00,268.88" />
<rect x="70" y="132" width="14" height="14" fill="#9467bd"/>
<text x="90" y="142" alignment-baseline="middle">5</text>
<polyline fill="none" stroke="#8c564b" stroke-width="1.8" points="60.00,263.31 77.14,265.50 94.29,260.49 111.43,245.76 128.57,244.07 145.71,244.07 162.86,233.32 180.00,247.61 197.14,303.96 214.29,269.19 231.43,269.19 248.57,265.29 265.71,310.54 282.86,299.25 300.00,270.21 317.14,270.21 334.29,287.61 351.43,271.49 368.57,267.43 385.71,266.82 402.86,266.82 420.00,305.46 437.14,305.55 454.29,308.97 471.43,325.01 488.57,325.01 505.71,322.25 522.86,346.35 540.00,325.25 557.14,330.86 574.29,330.86 591.43,326.04 608.57,334.33 625.71,339.50 642.86,350.08 660.00,350.08 677.14,362.53 694.29,382.36 711.43,343.28 728.57,344.80 745.71,344.80 762.86,334.30 780.00,334.30 797.14,327.39 814.29,348.70 831.43,348.70 848.57,335.05 865.71,336.07 882.86,337.04 900.00,336.83" />
<rect x="70" y="150" width="14" height="14" fill="#8c564b"/>
<text x="90" y="160" alignment-baseline="middle">6</text>
<polyline fill="none" stroke="#e377c2" stroke-width="1.8" points="60.00,263.31 77.14,256.92 94.29,254.76 111.43,246.08 128.57,222.79 145.71,222.79 162.86,194.81 180.00,223.19 197.14,243.32 214.29,190.17 231.43,190.17 248.57,155.59 265.71,117.72 282.86,150.76 300.00,79.47 317.14,79.47 334.29,76.35 351.43,69.44 368.57,70.63 385.71,104.34 402.86,104.34 420.00,104.97 437.14,124.53 454.29,119.32 471.43,113.90 488.57,113.90 505.71,103.19 522.86,110.44 540.00,109.03 557.14,83.53 574.29,83.53 591.43,83.16 608.57,125.46 625.71,128.30 642.86,153.26 660.00,153.26 677.14,153.54 694.29,167.75 711.43,153.53 728.57,127.82 745.71,127.82 762.86,110.53 780.00,110.53 797.14,101.74 814.29,124.56 831.43,124.56 848.57,100.96 865.71,92.91 882.86,99.11 900.00,101.60" />
<rect x="70" y="168" width="14" height="14" fill="#e377c2"/>
<text x="90" y="178" alignment-baseline="middle">7</text>
</svg>