<svg xmlns="http://www.w3.org/2000/svg" width="960" height="540" viewBox="0 0 960 540">
<style>text { font-family: "Helvetica Neue", Helvetica, Arial, sans-serif; font-size: 12px; }</style>
<rect x="0" y="0" width="960" height="540" fill="#ffffff" />
<line x1="60" y1="60" x2="60" y2="480" stroke="#333" stroke-width="1"/>
<line x1="60" y1="480" x2="900" y2="480" stroke="#333" stroke-width="1"/>
<text x="60" y="40" font-size="16" font-weight="600">Team Portfolio NAV Paths</text>
<text x="480.0" y="520" text-anchor="middle">Date</text>
<text x="20" y="50" text-anchor="end">NAV (USD)</text>
<text x="50" y="480.0" text-anchor="end">9,000</text>
<text x="50" y="60.0" text-anchor="end">10,938</text>
<text x="60" y="500" text-anchor="middle">2025-09-30</text>
<text x="900" y="500" text-anchor="middle">2025-11-21</text>
<polyline fill="none" stroke="#1f77b4" stroke-width="1.8" points="60.00,263.31 82.11,278.97 104.21,282.62 126.32,288.44 148.42,289.09 170.53,289.09 192.63,296.13 214.74,308.06 236.84,291.01 258.95,312.56 281.05,312.56 303.16,331.68 325.26,327.25 347.37,325.60 369.47,327.65 391.58,327.65 413.68,359.07 435.79,353.36 457.89,370.48 480.00,383.02 502.11,383.02 524.21,363.21 546.32,341.60 568.42,337.06 590.53,295.19 612.63,295.19 634.74,334.04 656.84,368.20 678.95,392.15 701.05,382.65 723.16,382.65 745.26,356.65 767.37,352.14 789.47,404.57 811.58,371.88 833.68,371.88 855.79,355.86 877.89,346.52 900.00,387.62" />
<rect x="70" y="60" width="14" height="14" fill="#1f77b4"/>
<text x="90" y="70" alignment-baseline="middle">1</text>
<polyline fill="none" stroke="#ff7f0e" stroke-width="1.8" points="60.00,263.31 82.11,268.89 104.21,280.16 126.32,277.95 148.42,262.46 170.53,262.46 192.63,258.02 214.74,273.11 236.84,299.73 258.95,282.68 281.05,282.68 303.16,267.30 325.26,288.72 347.37,283.30 369.47,270.34 391.58,270.34 413.68,265.24 435.79,262.55 457.89,266.30 480.00,263.77 502.11,263.77 524.21,254.91 546.32,259.47 568.42,258.22 590.53,236.26 612.63,236.26 634.74,235.42 656.84,255.49 678.95,252.68 701.05,218.56 723.16,218.56 745.26,223.75 767.37,258.59 789.47,268.35 811.58,259.04 833.68,259.04 855.79,270.11 877.89,249.14 900.00,256.68" />
<rect x="70" y="78" width="14" height="14" fill="#ff7f0e"/>
<text x="90" y="88" alignment-baseline="middle">2</text>
<polyline fill="none" stroke="#2ca02c" stroke-width="1.8" points="60.00,263.31 82.11,265.85 104.21,260.95 126.32,266.19 148.42,272.00 170.53,272.00 192.63,255.69 214.74,267.45 236.84,309.77 258.95,283.92 281.05,283.92 303.16,246.39 325.26,255.44 347.37,286.82 369.47,263.16 391.58,263.16 413.68,256.81 435.79,241.08 457.89,222.62 480.00,217.67 502.11,217.67 524.21,206.84 546.32,194.28 568.42,198.53 590.53,201.09 612.63,201.09 634.74,192.21 656.84,190.54 678.95,252.84 701.05,221.78 723.16,221.78 745.26,213.05 767.37,235.20 789.47,217.84 811.58,189.27 833.68,189.27 855.79,175.00 877.89,210.35 900.00,211.69" />
<rect x="70" y="96" width="14" height="14" fill="#2ca02c"/>
<text x="90" y="106" alignment-baseline="middle">3</text>
<polyline fill="none" stroke="#d62728" stroke-width="1.8" points="60.00,263.31 82.11,242.71 104.21,230.13 126.32,228.05 148.42,205.27 170.53,205.27 192.63,186.29 214.74,187.11 236.84,267.84 258.95,235.02 281.05,235.02 303.16,223.78 325.26,228.23 347.37,229.21 369.47,195.41 391.58,195.41 413.68,215.59 435.79,190.48 457.89,165.40 480.00,131.86 502.11,131.86 524.21,109.86 546.32,131.08 568.42,111.83 590.53,94.74 612.63,94.74 634.74,81.74 656.84,131.90 678.95,129.93 701.05,60.00 723.16,60.00 745.26,72.47 767.37,136.35 789.47,147.62 811.58,172.24 833.68,172.24 855.79,173.10 877.89,239.86 900.00,232.96" />
<rect x="70" y="114" width="14" height="14" fill="#d62728"/>
<text x="90" y="124" alignment-baseline="middle">4</text>
<polyline fill="none" stroke="#9467bd" stroke-width="1.8" points="60.00,263.31 82.11,254.32 104.21,247.41 126.32,247.45 148.42,241.26 170.53,241.26 192.63,224.99 214.74,242.69 236.84,312.54 258.95,287.90 281.05,287.90 303.16,288.64 325.26,281.73 347.37,281.29 369.47,270.05 391.58,270.05 413.68,278.27 435.79,271.40 457.89,256.04 480.00,236.98 502.11,236.98 524.21,235.15 546.32,243.43 568.42,246.85 590.53,246.78 612.63,246.78 634.74,242.78 656.84,265.88 678.95,261.94 701.05,218.36 723.16,218.36 745.26,217.58 767.37,250.11 789.47,250.83 811.58,262.32 833.68,262.32 855.79,262.26 877.89,295.82 900.00,274.55" />
<rect x="70" y="132" width="14" height="14" fill="#9467bd"/>
<text x="90" y="142" alignment-baseline="middle">5</text>
<polyline fill="none" stroke="#8c564b" stroke-width="1.8" points="60.00,263.31 82.11,265.50 104.21,260.49 126.32,245.76 148.42,244.07 170.53,244.07 192.63,233.32 214.74,247.61 236.84,303.96 258.95,269.19 281.05,269.19 303.16,265.29 325.26,310.54 347.37,299.25 369.47,270.21 391.58,270.21 413.68,287.61 435.79,271.49 457.89,267.43 480.00,266.82 502.11,266.82 524.21,305.46 546.32,305.55 568.42,308.97 590.53,325.01 612.63,325.01 634.74,322.25 656.84,346.35 678.95,325.25 701.05,330.86 723.16,330.86 745.26,326.04 767.37,334.33 789.47,339.50 811.58,350.08 833.68,350.08 855.79,362.53 877.89,382.36 900.00,343.28" />
<rect x="70" y="150" width="14" height="14" fill="#8c564b"/>
<text x="90" y="160" alignment-baseline="middle">6</text>
<polyline fill="none" stroke="#e377c2" stroke-width="1.8" points="60.00,263.31 82.11,256.92 104.21,254.76 126.32,246.08 148.42,222.79 170.53,222.79 192.63,194.81 214.74,223.19 236.84,243.32 258.95,190.17 281.05,190.17 303.16,155.59 325.26,117.72 347.37,150.76 369.47,79.47 391.58,79.47 413.68,76.35 435.79,69.44 457.89,70.63 480.00,104.34 502.11,104.34 524.21,104.97 546.32,124.53 568.42,119.32 590.53,113.90 612.63,113.90 634.74,103.19 656.84,110.44 678.95,109.03 701.05,83.53 723.16,83.53 745.26,83.16 767.37,125.46 789.47,128.30 811.58,153.26 833.68,153.26 855.79,153.54 877.89,167.75 900.00,153.53" />
<rect x="70" y="168" width="14" height="14" fill="#e377c2"/>
<text x="90" y="178" alignment-baseline="middle">7</text>
</svg>