<svg xmlns="http://www.w3.org/2000/svg" width="960" height="540" viewBox="0 0 960 540">
<style>text { font-family: "Helvetica Neue", Helvetica, Arial, sans-serif; font-size: 12px; }</style>
<rect x="0" y="0" width="960" height="540" fill="#ffffff" />
<line x1="60" y1="60" x2="60" y2="480" stroke="#333" stroke-width="1"/>
<line x1="60" y1="480" x2="900" y2="480" stroke="#333" stroke-width="1"/>
<text x="60" y="40" font-size="16" font-weight="600">Team Portfolio NAV Paths</text>
<text x="480.0" y="520" text-anchor="middle">Date</text>
<text x="20" y="50" text-anchor="end">NAV (USD)</text>
<text x="50" y="480.0" text-anchor="end">9,000</text>
<text x="50" y="60.0" text-anchor="end">10,895</text>
<text x="60" y="500" text-anchor="middle">2025-09-30</text>
<text x="900" y="500" text-anchor="middle">2025-10-29</text>
<polyline fill="none" stroke="#1f77b4" stroke-width="1.8" points="60.00,258.32 100.00,274.35 140.00,278.08 180.00,284.03 220.00,284.70 260.00,284.70 300.00,291.90 340.00,304.10 380.00,286.66 420.00,308.71 460.00,308.71 500.00,328.26 540.00,323.73 580.00,322.05 620.00,324.15 660.00,324.15 700.00,356.29 740.00,350.44 780.00,367.96 820.00,380.79 860.00,380.79 900.00,361.71" />
<rect x="70" y="60" width="14" height="14" fill="#1f77b4"/>
<text x="90" y="70" alignment-baseline="middle">1</text>
<polyline fill="none" stroke="#ff7f0e" stroke-width="1.8" points="60.00,258.32 100.00,265.09 140.00,276.61 180.00,274.35 220.00,258.71 260.00,258.71 300.00,254.17 340.00,269.59 380.00,296.81 420.00,279.39 460.00,279.39 500.00,263.66 540.00,285.56 580.00,280.02 620.00,266.76 660.00,266.76 700.00,261.55 740.00,258.80 780.00,262.63 820.00,260.05 860.00,260.05 900.00,251.95" />
<rect x="70" y="78" width="14" height="14" fill="#ff7f0e"/>
<text x="90" y="88" alignment-baseline="middle">2</text>
<polyline fill="none" stroke="#2ca02c" stroke-width="1.8" points="60.00,258.32 100.00,260.93 140.00,255.91 180.00,261.28 220.00,267.22 260.00,267.22 300.00,250.53 340.00,262.56 380.00,305.86 420.00,279.41 460.00,279.41 500.00,241.78 540.00,251.04 580.00,283.13 620.00,258.94 660.00,258.94 700.00,252.44 740.00,236.35 780.00,217.47 820.00,212.41 860.00,212.41 900.00,200.16" />
<rect x="70" y="96" width="14" height="14" fill="#2ca02c"/>
<text x="90" y="106" alignment-baseline="middle">3</text>
<polyline fill="none" stroke="#d62728" stroke-width="1.8" points="60.00,258.32 100.00,238.74 140.00,225.88 180.00,223.75 220.00,200.47 260.00,200.47 300.00,181.06 340.00,181.90 380.00,264.43 420.00,230.89 460.00,230.89 500.00,219.39 540.00,223.94 580.00,224.95 620.00,190.39 660.00,190.39 700.00,211.02 740.00,185.34 780.00,159.71 820.00,125.41 860.00,125.41 900.00,103.45" />
<rect x="70" y="114" width="14" height="14" fill="#d62728"/>
<text x="90" y="124" alignment-baseline="middle">4</text>
<polyline fill="none" stroke="#9467bd" stroke-width="1.8" points="60.00,258.32 100.00,251.38 140.00,244.32 180.00,244.37 220.00,238.04 260.00,238.04 300.00,221.41 340.00,239.50 380.00,310.89 420.00,285.70 460.00,285.70 500.00,286.46 540.00,279.40 580.00,278.95 620.00,267.46 660.00,267.46 700.00,275.86 740.00,268.84 780.00,253.14 820.00,233.67 860.00,233.67 900.00,231.85" />
<rect x="70" y="132" width="14" height="14" fill="#9467bd"/>
<text x="90" y="142" alignment-baseline="middle">5</text>
<polyline fill="none" stroke="#8c564b" stroke-width="1.8" points="60.00,258.32 100.00,260.57 140.00,255.45 180.00,240.66 220.00,239.14 260.00,239.14 300.00,228.15 340.00,243.30 380.00,300.92 420.00,265.37 460.00,265.37 500.00,261.38 540.00,307.65 580.00,296.10 620.00,266.41 660.00,266.41 700.00,284.70 740.00,268.23 780.00,264.07 820.00,263.45 860.00,263.45 900.00,300.11" />
<rect x="70" y="150" width="14" height="14" fill="#8c564b"/>
<text x="90" y="160" alignment-baseline="middle">6</text>
<polyline fill="none" stroke="#e377c2" stroke-width="1.8" points="60.00,258.32 100.00,251.79 140.00,249.58 180.00,240.70 220.00,216.87 260.00,216.87 300.00,188.25 340.00,217.29 380.00,237.87 420.00,183.51 460.00,183.51 500.00,148.12 540.00,109.39 580.00,143.19 620.00,70.26 660.00,70.26 700.00,67.07 740.00,60.00 780.00,61.21 820.00,95.70 860.00,95.70 900.00,99.64" />
<rect x="70" y="168" width="14" height="14" fill="#e377c2"/>
<text x="90" y="178" alignment-baseline="middle">7</text>
</svg>