<svg xmlns="http://www.w3.org/2000/svg" width="960" height="540" viewBox="0 0 960 540">
<style>text { font-family: "Helvetica Neue", Helvetica, Arial, sans-serif; font-size: 12px; }</style>
<rect x="0" y="0" width="960" height="540" fill="#ffffff" />
<line x1="60" y1="60" x2="60" y2="480" stroke="#333" stroke-width="1"/>
<line x1="60" y1="480" x2="900" y2="480" stroke="#333" stroke-width="1"/>
<text x="60" y="40" font-size="16" font-weight="600">Team Portfolio NAV Paths</text>
<text x="480.0" y="520" text-anchor="middle">Date</text>
<text x="20" y="50" text-anchor="end">NAV (USD)</text>
<text x="50" y="480.0" text-anchor="end">8,872</text>
<text x="50" y="60.0" text-anchor="end">10,904</text>
<text x="60" y="500" text-anchor="middle">2025-09-30</text>
<text x="900" y="500" text-anchor="middle">2025-12-08</text>
<polyline fill="none" stroke="#1f77b4" stroke-width="1.8" points="60.00,246.85 77.14,261.79 94.29,265.27 111.43,270.82 128.57,271.44 145.71,277.03 162.86,283.73 180.00,295.07 197.14,278.86 214.29,299.35 231.43,282.92 248.57,301.24 265.71,296.99 282.86,295.41 300.00,297.38 317.14,304.37 334.29,334.39 351.43,328.93 368.57,345.30 385.71,357.27 402.86,364.21 420.00,345.35 437.14,324.77 454.29,320.45 471.43,280.58 488.57,306.92 505.71,343.43 522.86,375.54 540.00,398.05 557.14,389.12 574.29,402.98 591.43,378.72 608.57,374.51 625.71,423.43 642.86,392.94 660.00,453.20 677.14,438.72 694.29,430.27 711.43,467.42 728.57,460.82 745.71,480.00 762.86,456.97 780.00,462.86 797.14,456.37 814.29,460.26 831.43,469.28 848.57,474.91 865.71,474.89 882.86,479.50 900.00,438.98" />
<rect x="70" y="60" width="14" height="14" fill="#1f77b4"/>
<text x="90" y="70" alignment-baseline="middle">1</text>
<polyline fill="none" stroke="#ff7f0e" stroke-width="1.8" points="60.00,246.85 77.14,252.18 94.29,262.93 111.43,260.82 128.57,246.05 145.71,255.92 162.86,251.70 180.00,266.02 197.14,291.29 214.29,275.11 231.43,238.07 248.57,223.21 265.71,243.90 282.86,238.67 300.00,226.14 317.14,238.95 334.29,234.06 351.43,231.47 368.57,235.07 385.71,232.65 402.86,235.53 420.00,227.03 437.14,231.40 454.29,230.20 471.43,209.14 488.57,229.31 505.71,228.52 522.86,247.58 540.00,244.92 557.14,212.50 574.29,218.81 591.43,223.72 608.57,256.72 625.71,265.96 642.86,257.15 660.00,272.41 677.14,282.81 694.29,263.10 711.43,270.19 728.57,263.00 745.71,240.66 762.86,212.36 780.00,212.36 797.14,185.37 814.29,183.21 831.43,170.74 848.57,139.52 865.71,131.46 882.86,129.57 900.00,140.68" />
<rect x="70" y="78" width="14" height="14" fill="#ff7f0e"/>
<text x="90" y="88" alignment-baseline="middle">2</text>
<polyline fill="none" stroke="#2ca02c" stroke-width="1.8" points="60.00,246.85 77.14,249.28 94.29,244.60 111.43,249.61 128.57,255.15 145.71,255.96 162.86,240.41 180.00,251.62 197.14,291.97 214.29,267.32 231.43,303.00 248.57,267.84 265.71,276.32 282.86,305.71 300.00,283.56 317.14,295.53 334.29,289.61 351.43,274.97 368.57,257.78 385.71,253.17 402.86,232.80 420.00,222.62 437.14,210.81 454.29,214.80 471.43,217.21 488.57,198.96 505.71,190.54 522.86,188.95 540.00,248.05 557.14,218.59 574.29,241.14 591.43,232.94 608.57,253.73 625.71,237.44 642.86,210.63 660.00,221.17 677.14,207.85 694.29,240.84 711.43,242.09 728.57,191.13 745.71,191.81 762.86,149.15 780.00,149.15 797.14,118.97 814.29,191.82 831.43,212.11 848.57,203.58 865.71,179.33 882.86,177.86 900.00,156.56" />
<rect x="70" y="96" width="14" height="14" fill="#2ca02c"/>
<text x="90" y="106" alignment-baseline="middle">3</text>
<polyline fill="none" stroke="#d62728" stroke-width="1.8" points="60.00,246.85 77.14,227.21 94.29,215.21 111.43,213.23 128.57,191.51 145.71,198.10 162.86,180.05 180.00,180.83 197.14,257.58 214.29,226.38 231.43,231.42 248.57,220.76 265.71,224.98 282.86,225.91 300.00,193.86 317.14,209.61 334.29,228.60 351.43,204.96 368.57,181.35 385.71,149.78 402.86,148.58 420.00,127.86 437.14,147.84 454.29,129.71 471.43,113.62 488.57,182.57 505.71,170.71 522.86,216.47 540.00,214.67 557.14,150.87 574.29,167.96 591.43,179.25 608.57,237.07 625.71,247.27 642.86,269.55 660.00,289.16 677.14,289.93 694.29,349.78 711.43,343.59 728.57,288.43 745.71,282.00 762.86,255.62 780.00,253.88 797.14,243.03 814.29,261.26 831.43,230.96 848.57,204.93 865.71,209.01 882.86,197.33 900.00,192.34" />
<rect x="70" y="114" width="14" height="14" fill="#d62728"/>
<text x="90" y="124" alignment-baseline="middle">4</text>
<polyline fill="none" stroke="#9467bd" stroke-width="1.8" points="60.00,246.85 77.14,238.28 94.29,231.69 111.43,231.73 128.57,225.83 145.71,232.03 162.86,216.56 180.00,233.40 197.14,299.81 214.29,276.38 231.43,288.59 248.57,289.29 265.71,282.76 282.86,282.34 300.00,271.72 317.14,288.20 334.29,295.90 351.43,289.47 368.57,275.06 385.71,257.20 402.86,244.67 420.00,242.94 437.14,250.75 454.29,253.98 471.43,253.91 488.57,279.31 505.71,275.58 522.86,297.11 540.00,293.44 557.14,252.83 574.29,257.67 591.43,256.94 608.57,287.18 625.71,287.85 642.86,298.52 660.00,288.83 677.14,288.78 694.29,320.12 711.43,300.25 728.57,295.04 745.71,274.68 762.86,254.68 780.00,254.68 797.14,239.17 814.29,252.56 831.43,252.50 848.57,246.93 865.71,257.64 882.86,266.29 900.00,274.54" />
<rect x="70" y="132" width="14" height="14" fill="#9467bd"/>
<text x="90" y="142" alignment-baseline="middle">5</text>
<polyline fill="none" stroke="#8c564b" stroke-width="1.8" points="60.00,246.85 77.14,248.95 94.29,244.17 111.43,230.12 128.57,228.50 145.71,243.53 162.86,233.35 180.00,246.88 197.14,300.23 214.29,267.32 231.43,247.12 248.57,243.39 265.71,286.66 282.86,275.86 300.00,248.09 317.14,237.91 334.29,254.63 351.43,239.14 368.57,235.23 385.71,234.65 402.86,252.98 420.00,289.78 437.14,289.86 454.29,293.12 471.43,308.39 488.57,298.78 505.71,296.15 522.86,319.21 540.00,299.02 557.14,304.38 574.29,285.53 591.43,280.88 608.57,288.89 625.71,293.88 642.86,304.10 660.00,311.64 677.14,323.62 694.29,342.71 711.43,305.10 728.57,306.56 745.71,290.12 762.86,279.93 780.00,279.93 797.14,273.23 814.29,293.90 831.43,299.12 848.57,285.91 865.71,286.89 882.86,287.84 900.00,287.63" />
<rect x="70" y="150" width="14" height="14" fill="#8c564b"/>
<text x="90" y="160" alignment-baseline="middle">6</text>
<polyline fill="none" stroke="#e377c2" stroke-width="1.8" points="60.00,246.85 77.14,240.77 94.29,238.70 111.43,230.43 128.57,208.21 145.71,208.44 162.86,181.76 180.00,208.83 197.14,228.02 214.29,177.34 231.43,166.11 248.57,132.96 265.71,96.66 282.86,128.33 300.00,60.00 317.14,147.86 334.29,144.98 351.43,138.61 368.57,139.71 385.71,170.76 402.86,165.51 420.00,166.09 437.14,184.15 454.29,179.34 471.43,174.33 488.57,196.76 505.71,186.98 522.86,193.60 540.00,192.32 557.14,169.02 574.29,163.03 591.43,162.69 608.57,201.46 625.71,204.06 642.86,226.93 660.00,233.68 677.14,233.94 694.29,246.92 711.43,233.93 728.57,210.45 745.71,182.15 762.86,166.14 780.00,166.14 797.14,158.00 814.29,179.13 831.43,180.81 848.57,158.97 865.71,151.52 882.86,157.26 900.00,159.57" />
<rect x="70" y="168" width="14" height="14" fill="#e377c2"/>
<text x="90" y="178" alignment-baseline="middle">7</text>
</svg>