<svg xmlns="http://www.w3.org/2000/svg" width="960" height="540" viewBox="0 0 960 540">
<style>text { font-family: "Helvetica Neue", Helvetica, Arial, sans-serif; font-size: 12px; }</style>
<rect x="0" y="0" width="960" height="540" fill="#ffffff" />
<line x1="60" y1="60" x2="60" y2="480" stroke="#333" stroke-width="1"/>
<line x1="60" y1="480" x2="900" y2="480" stroke="#333" stroke-width="1"/>
<text x="60" y="40" font-size="16" font-weight="600">Team Portfolio NAV Paths</text>
<text x="480.0" y="520" text-anchor="middle">Date</text>
<text x="20" y="50" text-anchor="end">NAV (USD)</text>
<text x="50" y="480.0" text-anchor="end">9,000</text>
<text x="50" y="60.0" text-anchor="end">10,938</text>
<text x="60" y="500" text-anchor="middle">2025-09-30</text>
<text x="900" y="500" text-anchor="middle">2025-12-05</text>
<polyline fill="none" stroke="#1f77b4" stroke-width="1.8" points="60.00,263.31 77.50,278.97 95.00,282.62 112.50,288.44 130.00,289.09 147.50,289.09 165.00,296.13 182.50,308.06 200.00,291.01 217.50,312.56 235.00,312.56 252.50,331.68 270.00,327.25 287.50,325.60 305.00,327.65 322.50,327.65 340.00,359.07 357.50,353.36 375.00,370.48 392.50,383.02 410.00,383.02 427.50,363.21 445.00,341.60 462.50,337.06 480.00,295.19 497.50,295.19 515.00,334.04 532.50,368.20 550.00,392.15 567.50,382.65 585.00,382.65 602.50,356.65 620.00,352.14 637.50,404.57 655.00,371.88 672.50,371.88 690.00,355.86 707.50,346.52 725.00,387.62 742.50,380.32 760.00,380.32 777.50,354.57 795.00,361.15 812.50,353.89 830.00,358.24 847.50,358.24 865.00,364.58 882.50,364.55 900.00,374.52" />
<rect x="70" y="60" width="14" height="14" fill="#1f77b4"/>
<text x="90" y="70" alignment-baseline="middle">1</text>
<polyline fill="none" stroke="#ff7f0e" stroke-width="1.8" points="60.00,263.31 77.50,268.89 95.00,280.16 112.50,277.95 130.00,262.46 147.50,262.46 165.00,258.02 182.50,273.11 200.00,299.73 217.50,282.68 235.00,282.68 252.50,267.30 270.00,288.72 287.50,283.30 305.00,270.34 322.50,270.34 340.00,265.24 357.50,262.55 375.00,266.30 392.50,263.77 410.00,263.77 427.50,254.91 445.00,259.47 462.50,258.22 480.00,236.26 497.50,236.26 515.00,235.42 532.50,255.49 550.00,252.68 567.50,218.56 585.00,218.56 602.50,223.75 620.00,258.59 637.50,268.35 655.00,259.04 672.50,259.04 690.00,270.11 707.50,249.14 725.00,256.68 742.50,249.03 760.00,249.03 777.50,219.24 795.00,219.24 812.50,190.85 830.00,188.57 847.50,188.57 865.00,155.90 882.50,147.47 900.00,147.47" />
<rect x="70" y="78" width="14" height="14" fill="#ff7f0e"/>
<text x="90" y="88" alignment-baseline="middle">2</text>
<polyline fill="none" stroke="#2ca02c" stroke-width="1.8" points="60.00,263.31 77.50,265.85 95.00,260.95 112.50,266.19 130.00,272.00 147.50,272.00 165.00,255.69 182.50,267.45 200.00,309.77 217.50,283.92 235.00,283.92 252.50,246.39 270.00,255.44 287.50,286.82 305.00,263.16 322.50,263.16 340.00,256.81 357.50,241.08 375.00,222.62 392.50,217.67 410.00,217.67 427.50,206.84 445.00,194.28 462.50,198.53 480.00,201.09 497.50,201.09 515.00,192.21 532.50,190.54 550.00,252.84 567.50,221.78 585.00,221.78 602.50,213.05 620.00,235.20 637.50,217.84 655.00,189.27 672.50,189.27 690.00,175.00 707.50,210.35 725.00,211.69 742.50,157.10 760.00,157.10 777.50,111.39 795.00,111.39 812.50,79.06 830.00,157.11 847.50,157.11 865.00,147.89 882.50,121.65 900.00,121.65" />
<rect x="70" y="96" width="14" height="14" fill="#2ca02c"/>
<text x="90" y="106" alignment-baseline="middle">3</text>
<polyline fill="none" stroke="#d62728" stroke-width="1.8" points="60.00,263.31 77.50,242.71 95.00,230.13 112.50,228.05 130.00,205.27 147.50,205.27 165.00,186.29 182.50,187.11 200.00,267.84 217.50,235.02 235.00,235.02 252.50,223.78 270.00,228.23 287.50,229.21 305.00,195.41 322.50,195.41 340.00,215.59 357.50,190.48 375.00,165.40 392.50,131.86 410.00,131.86 427.50,109.86 445.00,131.08 462.50,111.83 480.00,94.74 497.50,94.74 515.00,81.74 532.50,131.90 550.00,129.93 567.50,60.00 585.00,60.00 602.50,72.47 620.00,136.35 637.50,147.62 655.00,172.24 672.50,172.24 690.00,173.10 707.50,239.86 725.00,232.96 742.50,171.42 760.00,171.42 777.50,142.09 795.00,140.15 812.50,128.09 830.00,148.37 847.50,148.37 865.00,119.85 882.50,120.54 900.00,124.24" />
<rect x="70" y="114" width="14" height="14" fill="#d62728"/>
<text x="90" y="124" alignment-baseline="middle">4</text>
<polyline fill="none" stroke="#9467bd" stroke-width="1.8" points="60.00,263.31 77.50,254.32 95.00,247.41 112.50,247.45 130.00,241.26 147.50,241.26 165.00,224.99 182.50,242.69 200.00,312.54 217.50,287.90 235.00,287.90 252.50,288.64 270.00,281.73 287.50,281.29 305.00,270.05 322.50,270.05 340.00,278.27 357.50,271.40 375.00,256.04 392.50,236.98 410.00,236.98 427.50,235.15 445.00,243.43 462.50,246.85 480.00,246.78 497.50,246.78 515.00,242.78 532.50,265.88 550.00,261.94 567.50,218.36 585.00,218.36 602.50,217.58 620.00,250.11 637.50,250.83 655.00,262.32 672.50,262.32 690.00,262.26 707.50,295.82 725.00,274.55 742.50,268.97 760.00,268.97 777.50,247.77 795.00,247.77 812.50,231.33 830.00,245.52 847.50,245.52 865.00,239.62 882.50,250.97 900.00,250.97" />
<rect x="70" y="132" width="14" height="14" fill="#9467bd"/>
<text x="90" y="142" alignment-baseline="middle">5</text>
<polyline fill="none" stroke="#8c564b" stroke-width="1.8" points="60.00,263.31 77.50,265.50 95.00,260.49 112.50,245.76 130.00,244.07 147.50,244.07 165.00,233.32 182.50,247.61 200.00,303.96 217.50,269.19 235.00,269.19 252.50,265.29 270.00,310.54 287.50,299.25 305.00,270.21 322.50,270.21 340.00,287.61 357.50,271.49 375.00,267.43 392.50,266.82 410.00,266.82 427.50,305.46 445.00,305.55 462.50,308.97 480.00,325.01 497.50,325.01 515.00,322.25 532.50,346.35 550.00,325.25 567.50,330.86 585.00,330.86 602.50,326.04 620.00,334.33 637.50,339.50 655.00,350.08 672.50,350.08 690.00,362.53 707.50,382.36 725.00,343.28 742.50,344.80 760.00,344.80 777.50,334.30 795.00,334.30 812.50,327.39 830.00,348.70 847.50,348.70 865.00,335.05 882.50,336.07 900.00,336.07" />
<rect x="70" y="150" width="14" height="14" fill="#8c564b"/>
<text x="90" y="160" alignment-baseline="middle">6</text>
<polyline fill="none" stroke="#e377c2" stroke-width="1.8" points="60.00,263.31 77.50,256.92 95.00,254.76 112.50,246.08 130.00,222.79 147.50,222.79 165.00,194.81 182.50,223.19 200.00,243.32 217.50,190.17 235.00,190.17 252.50,155.59 270.00,117.72 287.50,150.76 305.00,79.47 322.50,79.47 340.00,76.35 357.50,69.44 375.00,70.63 392.50,104.34 410.00,104.34 427.50,104.97 445.00,124.53 462.50,119.32 480.00,113.90 497.50,113.90 515.00,103.19 532.50,110.44 550.00,109.03 567.50,83.53 585.00,83.53 602.50,83.16 620.00,125.46 637.50,128.30 655.00,153.26 672.50,153.26 690.00,153.54 707.50,167.75 725.00,153.53 742.50,127.82 760.00,127.82 777.50,110.53 795.00,110.53 812.50,101.74 830.00,124.56 847.50,124.56 865.00,100.96 882.50,92.91 900.00,92.91" />
<rect x="70" y="168" width="14" height="14" fill="#e377c2"/>
<text x="90" y="178" alignment-baseline="middle">7</text>
</svg>